# xmcd CD database file
#
# Track frame offsets:
#	183
#	64553
#	82195
#	87443
#	101288
#	113658
#
# Disc length: 2538 seconds
#
# Revision: 2
# Processed by: cddbd v1.5.1PL2 Copyright (c) Steve Scherf et al.
# Submitted via: CDex 1.51
#
DISCID=4109e806
DTITLE=Chuck Mangione - Children of Sanchez 1/2
DYEAR=1978
DGENRE=Jazz
TTITLE0=01_Children of Sanchez Overture
TTITLE1=02_Lullabye
TTITLE2=03_Fanfare
TTITLE3=04_Pilgrimage Part1
TTITLE4=05_Pilgrimage Part2
TTITLE5=06_Consuelo's Love Theme
EXTD=YEAR: 1978
EXTT0=
EXTT1=
EXTT2=
EXTT3=
EXTT4=
EXTT5=
PLAYORDER=
